<svg height="512" viewBox="0 0 64 64" width="512" xmlns="http://www.w3.org/2000/svg"><g id="outline"><path d="m55 40h2v2h-2z"/><path d="m51 40h2v2h-2z"/><path d="m47 40h2v2h-2z"/><path d="m27 37a3 3 0 1 0 -3-3 3 3 0 0 0 3 3zm0-4a1 1 0 1 1 -1 1 1 1 0 0 1 1-1z"/><path d="m35 37a3 3 0 1 0 -3-3 3 3 0 0 0 3 3zm0-4a1 1 0 1 1 -1 1 1 1 0 0 1 1-1z"/><path d="m44 34h2v2h-1a1 1 0 0 0 -.832.445l-1.703 2.555h-.465v-11a1 1 0 0 0 -1-1h-1v-7a1 1 0 0 0 -1-1h-1v-5h-2v5h-2v-3h-2v3h-1.382l-1.718-3.447a1 1 0 0 0 -.9-.553h-6a1 1 0 0 0 -.895.553l-1.723 3.447h-.382a1 1 0 0 0 -1 1v7h-2v-12a1 1 0 0 0 -1-1 2.9 2.9 0 0 1 -1.554-.395 4.873 4.873 0 0 0 -2.446-.605 4.874 4.874 0 0 0 -2.449.605 2.9 2.9 0 0 1 -1.551.395 2.9 2.9 0 0 1 -1.55-.394 4.855 4.855 0 0 0 -2.45-.606 1 1 0 0 0 -1 1v5a1 1 0 0 0 1 1 2.9 2.9 0 0 1 1.55.394 4.855 4.855 0 0 0 2.45.606 4.855 4.855 0 0 0 2.443-.6 2.907 2.907 0 0 1 1.557-.4 2.9 2.9 0 0 1 1.554.395 5.2 5.2 0 0 0 1.448.51v6.095h-3.002a1 1 0 0 0 -.986.835l-1.861 11.165h-5.153a1 1 0 0 0 -1 1v1a1 1 0 0 0 .086.406l4 9a1 1 0 0 0 .914.594h46a1 1 0 0 0 .748-.335l8-9a1.006 1.006 0 0 0 .252-.665v-4a1 1 0 0 0 -1-1h-1v-2h2v-2h-18zm-21.382-17h4.764l1 2h-6.764zm-2.618 4h18v6h-18zm-6.554-2.395a4.873 4.873 0 0 0 -2.446-.605 4.874 4.874 0 0 0 -2.449.605 2.9 2.9 0 0 1 -1.551.395 2.9 2.9 0 0 1 -1.55-.394 5 5 0 0 0 -1.45-.521v-2.938a4.639 4.639 0 0 1 .55.247 4.855 4.855 0 0 0 2.45.606 4.855 4.855 0 0 0 2.443-.6 2.907 2.907 0 0 1 1.557-.4 2.9 2.9 0 0 1 1.554.395 5.04 5.04 0 0 0 1.448.52v2.939a4.709 4.709 0 0 1 -.556-.249zm-1.599 10.395h28.153v10h-18v-7a1 1 0 0 0 -1-1h-6a1 1 0 0 0 -1 1v7h-3.819zm8.153 4v6h-4v-6zm32.551 16h-44.901l-.889-2h47.568zm7.449-8.38-3.894 4.38h-50.234l-1.778-4h38.906a1 1 0 0 0 .832-.445l1.703-2.555h14.465zm-4-6.62h2v2h-2zm-4 0h2v2h-2zm-4 0h2v2h-2z"/><path d="m22 23h2v2h-2z"/><path d="m26 23h2v2h-2z"/><path d="m30 23h2v2h-2z"/><path d="m34 23h2v2h-2z"/></g></svg>